<!DOCTYPE svg PUBLIC "-//W3C//DTD SVG 1.1//EN" "http://www.w3.org/Graphics/SVG/1.1/DTD/svg11.dtd">
<!-- Uploaded to: SVG Repo, www.svgrepo.com, Transformed by: SVG Repo Mixer Tools -->
<svg width="800px" height="800px" viewBox="0 0 28 28" fill="none" xmlns="http://www.w3.org/2000/svg">
<g id="SVGRepo_bgCarrier" stroke-width="0"/>
<g id="SVGRepo_tracerCarrier" stroke-linecap="round" stroke-linejoin="round"/>
<g id="SVGRepo_iconCarrier">
<path clip-rule="evenodd" d="M19.5 13.134C20.1667 13.5189 20.1667 14.4811 19.5 14.866L12 19.1962C11.3333 19.5811 10.5 19.0999 10.5 18.3301V9.66987C10.5 8.90007 11.3333 8.41895 12 8.80385L19.5 13.134ZM12.5 11.4019L17 14L12.5 16.5981V11.4019Z" fill="#ffffff" fill-rule="evenodd"/>
<path clip-rule="evenodd" d="M14 1C6.8203 1 1 6.8203 1 14C1 21.1797 6.8203 27 14 27C21.1797 27 27 21.1797 27 14C27 6.8203 21.1797 1 14 1ZM3 14C3 7.92487 7.92487 3 14 3C20.0751 3 25 7.92487 25 14C25 20.0751 20.0751 25 14 25C7.92487 25 3 20.0751 3 14Z" fill="#ffffff" fill-rule="evenodd"/>
</g>
</svg>