<svg xmlns="http://www.w3.org/2000/svg" xmlns:xlink="http://www.w3.org/1999/xlink" viewBox="0,0,256,256" width="24px" height="24px" fill-rule="nonzero"><g fill="#ffffff" fill-rule="nonzero" stroke="none" stroke-width="1" stroke-linecap="butt" stroke-linejoin="miter" stroke-miterlimit="10" stroke-dasharray="" stroke-dashoffset="0" font-family="none" font-weight="none" font-size="none" text-anchor="none" style="mix-blend-mode: normal"><g transform="scale(10.66667,10.66667)"><path d="M4.22461,4.22461c-1.991,1.992 -3.22461,4.74239 -3.22461,7.77539c0,3.033 1.23361,5.78339 3.22461,7.77539l1.41406,-1.41406c-1.63,-1.63 -2.63867,-3.88033 -2.63867,-6.36133c0,-2.481 1.00867,-4.73133 2.63867,-6.36133zM19.77539,4.22461l-1.41406,1.41406c1.63,1.63 2.63867,3.88033 2.63867,6.36133c0,2.481 -1.00867,4.73133 -2.63867,6.36133l1.41406,1.41406c1.991,-1.992 3.22461,-4.74239 3.22461,-7.77539c0,-3.033 -1.23361,-5.78339 -3.22461,-7.77539zM7.05273,7.05273c-1.268,1.267 -2.05273,3.01727 -2.05273,4.94727c0,1.93 0.78473,3.68027 2.05273,4.94727l1.41406,-1.41406c-0.906,-0.905 -1.4668,-2.1552 -1.4668,-3.5332c0,-1.378 0.5618,-2.6272 1.4668,-3.5332zM16.94727,7.05273l-1.41406,1.41406c0.906,0.905 1.4668,2.1552 1.4668,3.5332c0,1.378 -0.5618,2.6272 -1.4668,3.5332l1.41406,1.41406c1.267,-1.268 2.05273,-3.01727 2.05273,-4.94727c0,-1.93 -0.78473,-3.68027 -2.05273,-4.94727zM12,9c-1.65685,0 -3,1.34315 -3,3c0,1.65685 1.34315,3 3,3c1.65685,0 3,-1.34315 3,-3c0,-1.65685 -1.34315,-3 -3,-3z"></path></g></g></svg>